<?xml version="1.0" encoding="utf-8"?>
<!-- Generator: Adobe Illustrator 26.0.2, SVG Export Plug-In . SVG Version: 6.00 Build 0)  -->
<svg version="1.1" id="Layer_1" xmlns="http://www.w3.org/2000/svg" xmlns:xlink="http://www.w3.org/1999/xlink" x="0px" y="0px"
	 viewBox="0 0 152.3 28.6" style="enable-background:new 0 0 152.3 28.6;" xml:space="preserve">
<style type="text/css">
	.st0{fill:#ED2024;}
	.st1{clip-path:url(#SVGID_00000090295129568799924500000013193004132676314531_);}
	.st2{fill:#F1CA22;}
	.st3{enable-background:new    ;}
	.st4{fill:#FFFFFF;}
</style>
<path id="Rectangle_138" class="st0" d="M119.5,0.3h24c1.1,0,2,0.9,2,2v10c0,1.1-0.9,2-2,2h-24c-1.1,0-2-0.9-2-2v-10
	C117.5,1.2,118.4,0.3,119.5,0.3z"/>
<g id="Group_304" transform="translate(16 20.776)">
	<g>
		<defs>
			<rect id="SVGID_1_" x="-15.5" y="-13.7" width="151.6" height="21.2"/>
		</defs>
		<clipPath id="SVGID_00000168110997710989536810000008843960247101399196_">
			<use xlink:href="#SVGID_1_"  style="overflow:visible;"/>
		</clipPath>
		
			<g id="Group_303" transform="translate(0 0)" style="clip-path:url(#SVGID_00000168110997710989536810000008843960247101399196_);">
			<path id="Path_660" class="st2" d="M105.8,5.3c-0.6,0-1.1,0.6-1.1,1.2c0,0.6,0.5,1,1.1,1.1c0.6,0,1.1-0.4,1.1-1c0,0,0-0.1,0-0.1
				C106.9,5.8,106.5,5.3,105.8,5.3C105.9,5.3,105.9,5.3,105.8,5.3"/>
			<path id="Path_661" class="st2" d="M111.9-0.2c0.6,0,1.3,0.1,1.8,0.4l0.4-1.2c-0.7-0.3-1.4-0.5-2.2-0.4c-2.4-0.1-4.5,1.7-4.6,4.1
				c0,0.2,0,0.3,0,0.5c-0.2,2.3,1.5,4.2,3.8,4.4c0.2,0,0.3,0,0.5,0c0.9,0,1.7-0.2,2.5-0.5l-0.3-1.2c-0.6,0.3-1.3,0.4-1.9,0.4
				c-1.6,0-3-1.3-3-2.9c0-0.1,0-0.2,0-0.3c-0.2-1.6,1.1-3.1,2.7-3.2C111.7-0.2,111.8-0.2,111.9-0.2"/>
			<path id="Path_662" class="st2" d="M118.6-1.5c-2.4,0-4.3,1.7-4.3,4.6c-0.2,2.3,1.5,4.2,3.8,4.4c0.1,0,0.3,0,0.4,0
				c2.3,0.1,4.3-1.8,4.3-4.1c0-0.2,0-0.3,0-0.5C122.7,0.3,121-1.5,118.6-1.5 M118.5,6.3c-1.5,0-2.6-1.4-2.6-3.3
				c0-1.6,0.8-3.3,2.7-3.3s2.6,1.9,2.6,3.3C121.1,4.9,120,6.3,118.5,6.3"/>
			<path id="Path_663" class="st2" d="M133.3-1.5c-0.7,0-1.4,0.2-1.9,0.6c-0.4,0.3-0.7,0.7-1,1.1h0c-0.4-1-1.3-1.7-2.4-1.7
				c-1.1,0-2.2,0.6-2.7,1.6h-0.1l-0.1-1.4h-1.4c0.1,0.7,0.1,1.4,0.1,2.3v6.3h1.5V2.1c0-0.3,0-0.5,0.1-0.8c0.2-0.9,1-1.5,1.9-1.6
				c1.2,0,1.8,1,1.8,2.4v5.2h1.5V2c0-0.3,0-0.5,0.1-0.8c0.3-0.8,1-1.4,1.9-1.4c1.3,0,1.9,1,1.9,2.7v4.9h1.5V2.2
				C136.1-0.8,134.4-1.5,133.3-1.5"/>
			<path id="Path_664" class="st2" d="M36.7-13.7H12.1c-0.6,0-1.1,0-1.6,0c-0.4,0-0.8,0-1.2,0.1c-0.3,0-0.6,0.1-0.9,0.1
				c-0.3,0.1-0.5,0.1-0.7,0.2c-1.1,0.4-2,1.1-2.6,2.1c-0.7,1.1-1,2.3-1,3.5c0,0.9,0.2,1.7,0.5,2.5c0.3,0.8,0.8,1.4,1.4,2
				c0.6,0.5,1.3,0.8,2,1c1,0.2,2,0.3,3.1,0.3H15c0.4,0,0.9,0,1.3,0.1c0.3,0,0.6,0.1,0.9,0.3c0.4,0.2,0.7,0.5,1,0.9
				c0.2,0.4,0.4,0.8,0.4,1.3c0,0.8-0.3,1.5-1,1.9c-0.3,0.2-0.7,0.3-1.1,0.4C15.7,3,15.1,3,14.4,3H5.2v3.6h10.2c0.8,0,1.4,0,2,0
				c0.5,0,1-0.1,1.5-0.1c0.4-0.1,0.7-0.1,1.1-0.2c0.3-0.1,0.6-0.2,0.8-0.4c0.8-0.5,1.5-1.3,1.9-2.1c0.5-0.9,0.7-2,0.7-3.1
				c0-0.9-0.1-1.7-0.4-2.5c-0.2-0.7-0.6-1.4-1.1-1.9c-0.6-0.6-1.4-1.1-2.2-1.3c-1.2-0.3-2.4-0.4-3.6-0.4h-3.3c-0.5,0-1.1,0-1.6-0.1
				c-0.3,0-0.7-0.1-1-0.3C9.8-6,9.5-6.3,9.3-6.6C9.1-7,9-7.4,9-7.8c0-0.5,0.1-1,0.4-1.4c0.2-0.4,0.6-0.6,1-0.7
				c0.2,0,0.3-0.1,0.4-0.1s0.3,0,0.5,0s0.4,0,0.7,0c0.3,0,0.7,0,1.1,0h12.5V6.6h4.4v-16.7h6.7L36.7-13.7z"/>
			<path id="Path_665" class="st2" d="M46.6-1.5V-3c0-0.9-0.1-1.7-0.3-2.6c-0.2-0.6-0.5-1.1-0.9-1.5c-0.5-0.4-1.1-0.7-1.7-0.9
				c-0.9-0.2-1.9-0.3-2.9-0.2h-6V6.6h4.1V-5.1h1.2c0.7-0.1,1.5,0.1,2,0.6c0.4,0.6,0.6,1.4,0.6,2.2v0.8L46.6-1.5z"/>
			<path id="Path_666" class="st2" d="M61.2-4.7c-0.2-0.7-0.6-1.4-1.1-2c-0.5-0.5-1.1-0.9-1.7-1.1C58.1-7.9,57.8-8,57.6-8
				c-0.2,0-0.5-0.1-0.7-0.1c-0.3,0-0.6-0.1-1-0.1c-0.4,0-0.9,0-1.5,0h-6.9v3.1h6.9c0.5,0,1,0,1.5,0.1c0.4,0.1,0.7,0.2,1,0.4
				C57-4.3,57.2-4,57.3-3.7c0.1,0.4,0.1,0.9,0.1,1.3h-5c-1.1,0-2.3,0.1-3.3,0.3c-0.8,0.3-1.5,0.8-2,1.6c-0.5,0.8-0.8,1.8-0.7,2.7
				c0,0.7,0.1,1.4,0.4,2.1c0.3,0.6,0.7,1.1,1.3,1.5c0.2,0.2,0.4,0.3,0.7,0.4c0.3,0.1,0.6,0.2,0.9,0.2c0.4,0.1,0.9,0.1,1.3,0.1
				c0.5,0,1.2,0,2,0h8.6v-8.4c0-0.8,0-1.4-0.1-1.8C61.4-3.9,61.3-4.3,61.2-4.7 M57.4,3.5h-4.7c-0.6,0-1.2-0.1-1.7-0.3
				c-0.3-0.2-0.5-0.6-0.5-1c0-0.3,0.1-0.6,0.2-0.8c0.2-0.2,0.4-0.4,0.7-0.5c0.1,0,0.1,0,0.2,0c0.1,0,0.1,0,0.2,0c0.1,0,0.2,0,0.3,0
				h5.3V3.5z"/>
			<path id="Path_667" class="st2" d="M73.7-8.2h-3.8c-1.6-0.1-3.1,0.4-4.4,1.3c-1.8,1.5-2.8,3.7-2.7,6c-0.1,2.1,0.6,4.1,2.1,5.6
				c0.3,0.3,0.7,0.6,1.1,0.9c0.4,0.2,0.8,0.4,1.3,0.6c0.5,0.2,1,0.3,1.5,0.3c0.6,0.1,1.3,0.1,2,0.1h7v-20.4h-4.1V-8.2z M73.7,3.5h-3
				c-1.1,0.1-2.1-0.4-2.8-1.2c-0.7-0.9-1.1-2.1-1-3.2c-0.1-1.1,0.3-2.2,1-3.1c0.7-0.8,1.8-1.2,2.8-1.1h3L73.7,3.5z"/>
			<path id="Path_668" class="st2" d="M84.2-8c-0.7,0.2-1.3,0.4-1.9,0.8c-0.9,0.6-1.7,1.5-2.1,2.5c-0.5,1.1-0.8,2.4-0.8,3.6
				c0,2.8,0.9,4.9,2.7,6.2c0.6,0.5,1.3,0.9,2.1,1.1c0.9,0.2,1.9,0.3,2.9,0.3h5.4V3.5h-5c-0.5,0-1,0-1.5-0.1c-0.4-0.1-0.7-0.2-1-0.4
				c-0.3-0.2-0.6-0.5-0.8-0.9c-0.2-0.4-0.3-0.9-0.3-1.3h8.6v-3.1h-8.6c0-0.4,0.1-0.9,0.3-1.3c0.1-0.3,0.3-0.6,0.6-0.8
				C85-4.7,85.3-4.9,85.6-5C86.1-5,86.6-5.1,87-5.1h5.4v-3.1h-5.7C85.9-8.2,85-8.2,84.2-8"/>
			<path id="Path_669" class="st2" d="M106.2-1.5V-3c0-0.9-0.1-1.7-0.3-2.6c-0.2-0.6-0.5-1.1-0.9-1.5c-0.5-0.4-1.1-0.7-1.7-0.9
				c-0.9-0.2-1.9-0.3-2.9-0.2h-6V6.6h4.1V-5.1h1.2c0.7-0.1,1.5,0.1,2,0.6c0.4,0.6,0.6,1.4,0.6,2.2v0.8L106.2-1.5z"/>
			<path id="Path_670" class="st2" d="M2.1-3.8C1.5-4.5,0.7-4.9-0.1-5.1c-1.2-0.3-2.4-0.4-3.6-0.4H-7c-0.5,0-1.1,0-1.6-0.1
				c-0.3,0-0.7-0.1-1-0.3c-0.4-0.2-0.7-0.4-0.9-0.8c-0.2-0.4-0.3-0.8-0.3-1.2c0-0.5,0.1-1,0.4-1.4c0.2-0.4,0.6-0.6,1-0.7
				C-9.1-9.9-9-10-8.9-10c0.1,0,0.3,0,0.5,0c0.2,0,0.4,0,0.7,0s0.7,0,1.1,0h9.1v-3.6H-7.6c-0.6,0-1.1,0-1.6,0c-0.4,0-0.8,0-1.2,0.1
				c-0.3,0-0.6,0.1-0.9,0.1c-0.3,0.1-0.5,0.1-0.7,0.2c-1.1,0.4-2,1.1-2.6,2.1c-0.7,1.1-1,2.3-1,3.5c0,0.9,0.2,1.7,0.5,2.5
				c0.3,0.8,0.8,1.4,1.4,2c0.6,0.5,1.3,0.8,2,1c1,0.2,2,0.3,3.1,0.3h3.8c0.4,0,0.9,0,1.3,0.1c0.3,0,0.6,0.1,0.9,0.3
				c0.4,0.2,0.7,0.5,1,0.9c0.2,0.4,0.4,0.8,0.4,1.3c0,0.8-0.3,1.5-1,1.9c-0.3,0.2-0.7,0.3-1.1,0.4C-4,3-4.6,3-5.3,3h-9.3v3.6h10.2
				c0.8,0,1.4,0,2,0c0.5,0,1-0.1,1.4-0.1c0.4-0.1,0.7-0.1,1.1-0.2C0.5,6.1,0.8,6,1,5.8c0.8-0.5,1.5-1.3,1.9-2.1
				c0.5-0.9,0.7-2,0.7-3.1c0-0.9-0.1-1.7-0.4-2.5C3-2.6,2.6-3.3,2.1-3.8"/>
		</g>
	</g>
</g>
<g class="st3">
	<path class="st4" d="M123.6,11.4c-0.3,0-0.5-0.1-0.8-0.2c-0.3-0.1-0.5-0.3-0.8-0.6h0l-0.1,0.6h-1.4V2.9h1.8v2.1l0,0.9
		c0.2-0.2,0.5-0.4,0.8-0.5c0.3-0.1,0.5-0.2,0.8-0.2c0.4,0,0.7,0.1,1,0.2c0.3,0.1,0.5,0.3,0.7,0.6c0.2,0.3,0.4,0.6,0.5,0.9
		c0.1,0.4,0.2,0.8,0.2,1.2c0,0.5-0.1,1-0.2,1.4c-0.1,0.4-0.3,0.7-0.6,1c-0.2,0.3-0.5,0.5-0.8,0.6C124.2,11.4,123.9,11.4,123.6,11.4z
		 M123.2,10c0.3,0,0.6-0.1,0.8-0.4s0.3-0.7,0.3-1.3c0-1.1-0.3-1.6-1-1.6c-0.4,0-0.7,0.2-1,0.5v2.4c0.2,0.1,0.3,0.2,0.5,0.3
		S123,10,123.2,10z"/>
	<path class="st4" d="M130,11.4c-0.4,0-0.8-0.1-1.2-0.2c-0.4-0.1-0.7-0.3-1-0.6c-0.3-0.3-0.5-0.6-0.6-1c-0.2-0.4-0.2-0.8-0.2-1.3
		c0-0.5,0.1-0.9,0.2-1.3c0.2-0.4,0.4-0.7,0.6-1c0.3-0.3,0.6-0.5,0.9-0.6c0.3-0.1,0.7-0.2,1-0.2c0.4,0,0.8,0.1,1.1,0.2
		c0.3,0.1,0.6,0.3,0.8,0.6c0.2,0.3,0.4,0.6,0.5,0.9c0.1,0.3,0.2,0.7,0.2,1.1c0,0.2,0,0.3,0,0.5c0,0.1,0,0.3,0,0.3h-3.6
		c0.1,0.4,0.3,0.8,0.5,1c0.3,0.2,0.6,0.3,1,0.3c0.4,0,0.9-0.1,1.3-0.4l0.6,1.1c-0.3,0.2-0.6,0.4-1,0.5S130.4,11.4,130,11.4z
		 M128.7,7.7h2.1c0-0.3-0.1-0.6-0.2-0.8c-0.2-0.2-0.4-0.3-0.8-0.3c-0.3,0-0.5,0.1-0.7,0.3C128.9,7,128.7,7.3,128.7,7.7z"/>
	<path class="st4" d="M135.7,11.4c-0.4,0-0.7-0.1-0.9-0.2c-0.3-0.1-0.5-0.3-0.6-0.5c-0.2-0.2-0.3-0.4-0.4-0.7s-0.1-0.6-0.1-0.9V6.7
		h-0.8V5.4l0.9-0.1l0.2-1.6h1.5v1.6h1.4v1.4h-1.4v2.4c0,0.3,0.1,0.6,0.2,0.7c0.1,0.1,0.3,0.2,0.6,0.2c0.1,0,0.2,0,0.3,0
		c0.1,0,0.2-0.1,0.3-0.1l0.3,1.3c-0.2,0-0.3,0.1-0.6,0.1C136.3,11.4,136,11.4,135.7,11.4z"/>
	<path class="st4" d="M139.3,11.4c-0.3,0-0.5,0-0.7-0.1c-0.2-0.1-0.4-0.2-0.6-0.4c-0.2-0.2-0.3-0.4-0.4-0.6s-0.1-0.5-0.1-0.7
		c0-0.6,0.3-1.1,0.8-1.5c0.5-0.4,1.4-0.6,2.6-0.7c0-0.3-0.1-0.5-0.2-0.6c-0.1-0.2-0.4-0.2-0.7-0.2c-0.3,0-0.5,0-0.8,0.1
		s-0.5,0.2-0.8,0.4L137.7,6c0.4-0.2,0.8-0.4,1.2-0.6c0.4-0.1,0.9-0.2,1.3-0.2c0.8,0,1.4,0.2,1.8,0.7c0.4,0.4,0.6,1.1,0.6,2v3.4h-1.4
		l-0.1-0.6h0c-0.3,0.2-0.5,0.4-0.8,0.5C139.9,11.4,139.6,11.4,139.3,11.4z M139.9,10.1c0.2,0,0.4,0,0.5-0.1c0.1-0.1,0.3-0.2,0.5-0.4
		v-1c-0.6,0.1-1.1,0.2-1.3,0.4s-0.4,0.4-0.4,0.6c0,0.2,0.1,0.3,0.2,0.4C139.5,10,139.7,10.1,139.9,10.1z"/>
</g>
</svg>
